<svg width="22" height="27" viewBox="0 0 22 27" fill="none" xmlns="http://www.w3.org/2000/svg">
<path d="M18.7778 26.9999H3.47222C1.7 26.9999 0.249996 25.5827 0.249996 23.8505V15.1899C0.249996 13.4577 1.7 12.0405 3.47222 12.0405H18.7778C20.55 12.0405 22 13.4577 22 15.1899V23.8505C22 25.5827 20.55 26.9999 18.7778 26.9999ZM3.47222 12.8279C2.58611 12.8279 1.11848 14.3238 1.11848 15.1899V23.8505C1.11848 24.7166 2.58611 26.1106 3.47222 26.1106H18.7778C19.6639 26.1106 21.1581 24.8239 21.1581 23.9579V15.1899C21.1581 14.3238 19.6639 12.8279 18.7778 12.8279H3.47222Z" fill="#F4F4F4"/>
<path d="M5.48644 12.6761H4.47949V6.37741C4.47949 2.91314 7.5406 0 11.3267 0C15.1128 0 18.1739 2.8344 18.1739 6.37741V12.6761H17.167V6.37741C17.167 3.27257 14.2267 0.930958 11.3267 0.930958C8.42671 0.930958 5.48644 3.88097 5.48644 6.31455V12.6761Z" fill="#F4F4F4"/>
</svg>
