<svg width="22" height="27" viewBox="0 0 22 27" fill="none" xmlns="http://www.w3.org/2000/svg">
<path d="M18.6389 26.9999H3.86111C2.15 26.9999 0.749996 25.5827 0.749996 23.8505V15.1899C0.749996 13.4577 2.15 12.0405 3.86111 12.0405H18.6389C20.35 12.0405 21.75 13.4577 21.75 15.1899V23.8505C21.75 25.5827 20.35 26.9999 18.6389 26.9999ZM3.86111 12.8279C3.00555 12.8279 1.58853 14.3238 1.58853 15.1899V23.8505C1.58853 24.7166 3.00555 26.1106 3.86111 26.1106H18.6389C19.4944 26.1106 20.9371 24.8239 20.9371 23.9579V15.1899C20.9371 14.3238 19.4944 12.8279 18.6389 12.8279H3.86111Z" fill="#222222"/>
<path d="M6.35406 12.6761H5.38184V6.3774C5.38184 2.91313 8.33739 -2.787e-06 11.9929 -2.787e-06C15.6485 -2.787e-06 18.6041 2.8344 18.6041 6.3774V8.66067L17.6318 8.74812V6.3774C17.6318 3.27257 14.7929 0.838993 11.9929 0.838993C9.19295 0.838993 6.35406 3.88097 6.35406 6.31454V12.6761Z" fill="#222222"/>
</svg>
